<?xml version="1.0" encoding="UTF-8" standalone="no"?>
<!-- Created with Inkscape (http://www.inkscape.org/) -->

<svg
   version="1.1"
   id="svg2"
   xml:space="preserve"
   width="1782.5468"
   height="1383.7467"
   viewBox="0 0 1782.5468 1383.7467"
   sodipodi:docname="Wella-Company_Logo_Black.ai"
   xmlns:inkscape="http://www.inkscape.org/namespaces/inkscape"
   xmlns:sodipodi="http://sodipodi.sourceforge.net/DTD/sodipodi-0.dtd"
   xmlns="http://www.w3.org/2000/svg"
   xmlns:svg="http://www.w3.org/2000/svg"><defs
     id="defs6"><clipPath
       clipPathUnits="userSpaceOnUse"
       id="clipPath16"><path
         d="M 0,1037.811 H 1336.914 V 0 H 0 Z"
         id="path14" /></clipPath></defs><sodipodi:namedview
     id="namedview4"
     pagecolor="#ffffff"
     bordercolor="#666666"
     borderopacity="1.0"
     inkscape:pageshadow="2"
     inkscape:pageopacity="0.0"
     inkscape:pagecheckerboard="0" /><g
     id="g8"
     inkscape:groupmode="layer"
     inkscape:label="Wella-Company_Logo_Black"
     transform="matrix(1.3333333,0,0,-1.3333333,0,1383.7467)"><g
       id="g10"><g
         id="g12"
         clip-path="url(#clipPath16)"><g
           id="g18"
           transform="translate(985.0693,657.0583)"><path
             d="m 0,0 c -48.046,5.031 -118.208,-30.275 -134.274,-36.913 -34.122,-14.093 -63.828,-27.141 -101.378,-31.337 -95.695,-10.622 -144.898,52.951 -176.081,79.468 -11.655,9.947 -23.246,20.134 -37.535,26.128 -7.336,3.086 -15.607,5.56 -23.657,4.933 -2.557,-0.224 -9.225,-1.027 -9.321,-4.305 0,-3.182 7.541,-1.962 18.164,-9.949 9.892,-7.391 19.418,-15.442 27.977,-24.314 12.527,-13.096 27.419,-29.632 40.295,-42.375 63.828,-63.155 103.286,-64.36 120.669,-66.063 81.517,-8.02 144.914,30.806 202.725,55.136 66.493,28.009 104.012,21.323 123.145,-11.861 2.905,-5.045 6.956,-2.506 5.922,6.219 C 53.556,-28.25 35.264,-3.696 0,0"
             style="fill:#000000;fill-opacity:1;fill-rule:nonzero;stroke:none"
             id="path20" /></g><g
           id="g22"
           transform="translate(440.4883,568.7219)"><path
             d="m 0,0 c -11.083,12.776 -26.705,17.966 -42.98,20.603 -17.91,2.907 -36.058,1.976 -54.125,0.962 -8.13,-0.384 -17.324,-2.297 -25.374,-0.753 -9.463,1.782 -9.351,11.056 -6.62,18.543 1.318,3.584 4.684,7.472 4.827,11.298 0.079,1.88 -0.652,3.729 -1.684,5.254 -0.571,0.884 -1.302,1.72 -2.111,2.442 -1.492,1.367 -1.827,1.336 -1.207,3.391 0.587,2.058 1.603,4.131 3.032,5.722 1.429,1.607 3.826,1.912 4.255,4.306 0.461,2.684 -1.603,3.761 -3.587,4.628 -2.43,1.045 -8.511,6.203 -5.574,8.872 3.588,3.213 6.017,7.905 6.146,12.791 0.078,4.034 -1.588,7.987 -4.987,10.268 -3.969,2.715 -8.922,6.542 -9.748,11.651 -0.413,2.427 7.621,6.669 9.591,8.034 4.539,3.167 31.356,22.692 36.532,32.156 5.066,9.145 4.002,20.828 6.066,30.888 5.224,25.294 33.581,40.751 36.248,42.746 3.699,2.716 5.812,6.877 8.574,10.445 14.686,18.672 37.915,24.41 60.921,23.879 34.756,-0.818 64.321,-22.834 91.487,-42.279 29.977,-21.421 59.984,-42.924 91.359,-62.416 88.168,-54.702 142.167,-22.208 207.297,6.557 79.291,35.049 102.059,25.808 123.351,2.154 3.827,-4.243 5.701,0.738 3.065,9.899 -5.463,18.64 -25.516,41.83 -63.24,40.592 -36.726,-1.206 -94.741,-29.97 -95.328,-30.243 -33.391,-15.092 -74.259,-41.606 -153.996,-0.049 -28.183,14.672 -53.555,34.63 -79.404,53.046 -26.26,18.657 -52.301,37.524 -82.802,48.66 -29.53,10.783 -61.842,11.636 -90.595,-2.234 -14.162,-6.862 -27.564,-18.189 -33.025,-33.457 -0.859,-2.395 -1.239,-5.11 -2.731,-7.215 -0.525,-0.771 -1.191,-1.414 -1.905,-2.009 -1.35,-0.787 -15.101,-8.163 -24.722,-18.063 -11.051,-11.361 -16.005,-26.917 -19.466,-42.086 -1.095,-4.854 -2.033,-9.756 -2.857,-14.705 -0.953,-5.591 -2.716,-9.24 -6.797,-13.29 -7.541,-7.569 -33.865,-24.829 -37.977,-27.576 -2.271,-1.542 -5.845,-3.165 -7.353,-5.527 -4.349,-6.975 1.827,-15.861 6.527,-20.505 2.682,-2.62 7.113,-5.031 7.509,-9.049 0.364,-3.358 -1.794,-6.476 -4.096,-8.725 -1.128,-1.156 -3.413,-2.25 -3.652,-4.002 -0.286,-1.976 -0.318,-4.017 0.111,-5.992 0.968,-4.533 4.494,-7.442 8.162,-9.885 -6.002,-2.602 -16.021,-13.081 -8.193,-19.203 4.635,-3.584 4.27,-6.429 2.937,-11.603 -1.318,-5.126 -2.319,-10.429 -2.445,-15.78 -0.175,-8.823 2.794,-17.419 11.051,-21.614 8.764,-4.419 19.878,-3.6 29.405,-3.15 37.152,1.639 79.118,11.41 110.649,-14.543 12.528,-10.301 20.736,-29.183 22.769,-32.171 1.525,-2.251 5.224,-1.947 4.842,1.524 C 16.26,-30.132 11.257,-12.92 0,0"
             style="fill:#000000;fill-opacity:1;fill-rule:nonzero;stroke:none"
             id="path24" /></g><g
           id="g26"
           transform="translate(642.1172,649.4577)"><path
             d="m 0,0 c 45.679,-23.494 92.263,-44.724 216.615,13.257 v -0.032 c 0,0 0.223,0.16 0.635,0.354 80.688,37.588 123.067,44.368 150.265,3.938 2.017,-2.958 6.224,-1.881 4.161,8.531 C 365.467,57.225 344.619,73.327 314.12,76.059 277.713,79.37 222.269,53.576 222.269,53.576 125.082,9.336 103.283,10.396 66.526,16.263 5.986,25.953 -65.51,88.208 -88.913,107.347 c -23.564,19.172 -51.57,38.841 -83.516,34.952 -7.416,-0.9 -14.655,-3.053 -21.103,-6.829 -2.381,-1.415 -12.146,-7.056 -10.605,-10.575 1.095,-2.539 4.907,-1.752 6.922,-1.35 4.096,0.707 8.224,1.43 12.369,1.865 17.941,1.944 43.664,-3.407 74.402,-30.55 C -72.401,61.305 -37.725,19.396 0,0"
             style="fill:#000000;fill-opacity:1;fill-rule:nonzero;stroke:none"
             id="path28" /></g><g
           id="g30"
           transform="translate(1170.6631,276.4718)"><path
             d="M 0,0 H -13.788 L -56.023,-50.868 -98.26,0 h -14.105 l 50.874,-61.933 v -49.005 h 12.203 v 50.935 z"
             style="fill:#000000;fill-opacity:1;fill-rule:nonzero;stroke:none"
             id="path32" /></g><g
           id="g34"
           transform="translate(368.708,175.2013)"><path
             d="m 0,0 c -34.232,0 -47.704,14.738 -47.704,45.96 0,31.222 13.472,45.802 47.704,45.802 33.916,0 47.07,-14.58 47.07,-45.802 C 47.07,14.738 33.757,0 0,0 m 0,103.331 c -43.9,0 -60.541,-20.602 -60.541,-57.371 0,-36.769 16.641,-58.005 60.541,-58.005 43.583,0 59.907,21.396 59.907,58.005 0,36.769 -16.324,57.371 -59.907,57.371"
             style="fill:#000000;fill-opacity:1;fill-rule:nonzero;stroke:none"
             id="path36" /></g><g
           id="g38"
           transform="translate(237.9209,266.6466)"><path
             d="m 0,0 c 15.214,0 26.942,-3.17 35.342,-7.925 l 5.23,10.778 C 30.27,9.033 17.116,11.886 0,11.886 c -45.01,0 -62.126,-20.603 -62.126,-57.371 0,-36.769 17.116,-58.005 62.126,-58.005 17.116,0 30.27,2.852 40.572,9.033 l -5.23,10.618 c -8.4,-4.596 -20.128,-7.765 -35.342,-7.765 -35.342,0 -49.289,14.739 -49.289,46.119 C -49.289,-14.423 -35.342,0 0,0"
             style="fill:#000000;fill-opacity:1;fill-rule:nonzero;stroke:none"
             id="path40" /></g><g
           id="g42"
           transform="translate(534.2773,196.1623)"><path
             d="M 0,0 -53.488,80.31 H -65.375 V -30.629 h 11.569 V 59.937 L -1.981,-17.95 h 3.962 l 51.824,77.887 v -90.566 h 11.57 V 80.31 H 53.488 Z"
             style="fill:#000000;fill-opacity:1;fill-rule:nonzero;stroke:none"
             id="path44" /></g><g
           id="g46"
           transform="translate(698.2666,217.5158)"><path
             d="M 0,0 H -38.194 V 48.18 H 0 c 21.713,0 32.965,-7.29 32.965,-24.248 C 32.965,7.132 21.554,0 0,0 M 0,58.956 H -50.397 V -51.982 h 12.203 v 41.364 H 0 c 31.855,0 45.644,14.105 45.644,34.55 0,21.712 -13.63,35.024 -45.644,35.024"
             style="fill:#000000;fill-opacity:1;fill-rule:nonzero;stroke:none"
             id="path48" /></g><g
           id="g50"
           transform="translate(1017.0547,196.5959)"><path
             d="M 0,0 0.316,-11.886 0,-12.203 -7.925,-3.645 -86.374,79.876 H -98.261 V -31.062 h 11.57 v 82.57 l -0.476,12.045 0.635,0.158 7.448,-8.558 81.937,-86.215 h 8.082 V 79.876 H 0 Z"
             style="fill:#000000;fill-opacity:1;fill-rule:nonzero;stroke:none"
             id="path52" /></g><g
           id="g54"
           transform="translate(785.7881,204.5207)"><path
             d="m 0,0 27.418,52.458 5.229,10.777 h 0.318 L 37.878,52.458 64.661,0 Z m 25.516,71.951 -58.797,-110.78 h 13.312 l 14.58,27.893 H 70.367 L 84.472,-38.829 H 98.577 L 39.463,71.951 Z"
             style="fill:#000000;fill-opacity:1;fill-rule:nonzero;stroke:none"
             id="path56" /></g><g
           id="g58"
           transform="translate(304.0074,487.7404)"><path
             d="m 0,0 c 2.028,0 9.235,0.952 14.005,-12.385 7.52,-20.871 19.281,-53.799 27.656,-77.238 4.874,-13.645 8.601,-24.074 9.674,-27.047 l 2.545,-7.042 2.258,7.139 c 3.463,10.967 33.081,104.895 37.531,119.015 h 29.834 L 70.287,-163.809 H 41.073 C 35.841,-149.896 -0.93,-52.083 -4.703,-42.086 l -2.423,6.418 -2.425,-6.418 c -3.772,-9.997 -40.543,-107.81 -45.775,-121.723 H -84.541 L -137.756,2.442 h 29.834 c 4.449,-14.12 34.067,-108.048 37.531,-119.015 l 2.258,-7.139 2.545,7.042 c 1.073,2.973 4.8,13.402 9.673,27.047 8.375,23.439 20.137,56.367 27.656,77.238 C -23.488,0.952 -16.281,0 -14.253,0 Z"
             style="fill:#000000;fill-opacity:1;fill-rule:nonzero;stroke:none"
             id="path60" /></g><g
           id="g62"
           transform="translate(1063.3291,466.1427)"><path
             d="M 0,0 C 5.861,0 10.137,-3.177 13.026,-9.072 24.59,-32.669 50.023,-88.425 50.023,-88.425 H -50.024 c 0,0 25.432,55.756 36.997,79.353 C -10.139,-3.177 -5.862,0 -0.002,0 Z m 58.186,-109.323 15.293,-32.888 h 33.855 L 40.998,-1.596 C 33.872,14.099 28.632,24.04 12.556,24.04 h -25.113 c -16.076,0 -21.316,-9.941 -28.442,-25.636 l -66.336,-140.615 h 33.856 l 15.291,32.888 116.374,0.032 z"
             style="fill:#000000;fill-opacity:1;fill-rule:nonzero;stroke:none"
             id="path64" /></g><g
           id="g66"
           transform="translate(834.8437,361.0578)"><path
             d="M 0,0 V 129.125 H -28.26 V -4.878 c 0,-20.21 11.482,-32.248 30.635,-32.248 h 94.254 c 1.676,3.296 6.197,12.573 11.809,24.836 H 12.506 C 5.494,-12.29 0,-6.892 0,0"
             style="fill:#000000;fill-opacity:1;fill-rule:nonzero;stroke:none"
             id="path68" /></g><g
           id="g70"
           transform="translate(493.3291,465.0177)"><path
             d="m 0,0 c -7.781,0 -12.759,-4.391 -12.759,-13.232 v -30.243 h 97.217 v -24.9 h -97.217 v -34.743 c 0,-8.843 4.978,-13.234 12.759,-13.234 l 111.752,0.098 c 7.016,0 8.957,-3.817 10.744,-8.039 2.517,-5.949 2.784,-14.127 2.935,-16.793 H -5.253 c -19.651,0 -36.907,9.057 -36.907,36.844 v 92.134 c 0,27.786 17.256,37.273 36.907,37.273 h 129.491 c -0.152,-2.666 -0.419,-11.273 -2.936,-17.224 -1.785,-4.221 -3.727,-8.038 -10.743,-8.038 z"
             style="fill:#000000;fill-opacity:1;fill-rule:nonzero;stroke:none"
             id="path72" /></g><g
           id="g74"
           transform="translate(771.9512,348.7531)"><path
             d="m 0,0 c 7.017,0 8.958,-3.525 10.743,-7.747 2.518,-5.949 2.784,-14.408 2.936,-17.074 H -9.735 -96.271 c -19.154,0 -30.635,12.038 -30.635,32.248 V 141.43 h 28.26 V 12.305 c 0,-6.892 5.494,-12.29 12.505,-12.29 0,0 41.541,-0.015 64.626,-0.015 z"
             style="fill:#000000;fill-opacity:1;fill-rule:nonzero;stroke:none"
             id="path76" /></g></g></g></g></svg>
